<svg xmlns="http://www.w3.org/2000/svg" viewBox="0 0 1200 860" role="img" aria-labelledby="title desc">
  <title id="title">Modern hospital exterior illustration</title>
  <desc id="desc">A modern multi-speciality hospital building with an ambulance, garden path, and soft sunrise sky.</desc>
  <defs>
    <linearGradient id="sky" x1="0%" y1="0%" x2="100%" y2="100%">
      <stop offset="0%" stop-color="#dbf4ff"/>
      <stop offset="45%" stop-color="#c3ecff"/>
      <stop offset="100%" stop-color="#8ec5ff"/>
    </linearGradient>
    <linearGradient id="building" x1="0%" y1="0%" x2="0%" y2="100%">
      <stop offset="0%" stop-color="#f8fbff"/>
      <stop offset="100%" stop-color="#d7e5f7"/>
    </linearGradient>
    <linearGradient id="glass" x1="0%" y1="0%" x2="0%" y2="100%">
      <stop offset="0%" stop-color="#8fd4ff"/>
      <stop offset="100%" stop-color="#316dbe"/>
    </linearGradient>
    <linearGradient id="accent" x1="0%" y1="0%" x2="100%" y2="100%">
      <stop offset="0%" stop-color="#34d399"/>
      <stop offset="100%" stop-color="#2563eb"/>
    </linearGradient>
    <filter id="shadow" x="-20%" y="-20%" width="140%" height="140%">
      <feDropShadow dx="0" dy="18" stdDeviation="20" flood-color="#0f172a" flood-opacity="0.16"/>
    </filter>
  </defs>

  <rect width="1200" height="860" rx="48" fill="url(#sky)"/>
  <circle cx="965" cy="145" r="88" fill="#fff2b8" opacity="0.75"/>
  <path d="M73 202c39-64 122-84 186-46 11-37 46-63 87-63 45 0 82 30 91 72 60-9 115 29 131 87H73c-14-16-19-36-19-50 0-1 0-1 0-2 0-1 0-1 0-1 0-1 0-1 0-2 2-8 7-18 19-25Z" fill="#f7fcff" opacity="0.75"/>
  <path d="M864 250c24-40 76-53 116-29 7-24 29-41 55-41 28 0 51 19 57 47 37-5 72 18 81 53H864c-8-9-11-20-11-30 0-1 0-1 0-1 0-1 0-1 0-1 1-5 4-10 11-14Z" fill="#eef8ff" opacity="0.8"/>

  <ellipse cx="600" cy="766" rx="462" ry="62" fill="#0f2740" opacity="0.12"/>
  <path d="M0 730c131-28 274-28 410 0s254 28 392 0 264-28 398 0v130H0Z" fill="#7cc8a3"/>
  <path d="M0 770c132-28 272-28 408 0s260 28 398 0 264-28 394 0v90H0Z" fill="#4b9b72"/>
  <path d="M524 522h152l86 208H438Z" fill="#87b993"/>

  <g filter="url(#shadow)">
    <rect x="180" y="274" width="205" height="328" rx="22" fill="url(#building)"/>
    <rect x="815" y="274" width="205" height="328" rx="22" fill="url(#building)"/>
    <rect x="336" y="176" width="528" height="454" rx="28" fill="url(#building)"/>
    <rect x="470" y="176" width="258" height="454" rx="20" fill="#edf6ff"/>
    <rect x="530" y="136" width="140" height="108" rx="18" fill="#eff7ff"/>
    <rect x="568" y="88" width="64" height="104" rx="18" fill="#f6fbff"/>
    <rect x="586" y="54" width="28" height="80" rx="12" fill="#f6fbff"/>

    <rect x="528" y="250" width="144" height="58" rx="16" fill="url(#accent)"/>
    <rect x="586" y="216" width="28" height="126" rx="10" fill="#f7fbff"/>
    <rect x="536" y="265" width="128" height="28" rx="9" fill="#f7fbff"/>

    <rect x="540" y="418" width="120" height="212" rx="18" fill="#f8fbff"/>
    <rect x="560" y="438" width="80" height="192" rx="14" fill="url(#glass)"/>

    <rect x="392" y="236" width="58" height="84" rx="12" fill="url(#glass)"/>
    <rect x="392" y="344" width="58" height="84" rx="12" fill="url(#glass)"/>
    <rect x="392" y="452" width="58" height="84" rx="12" fill="url(#glass)"/>
    <rect x="750" y="236" width="58" height="84" rx="12" fill="url(#glass)"/>
    <rect x="750" y="344" width="58" height="84" rx="12" fill="url(#glass)"/>
    <rect x="750" y="452" width="58" height="84" rx="12" fill="url(#glass)"/>

    <rect x="226" y="318" width="44" height="64" rx="10" fill="url(#glass)"/>
    <rect x="292" y="318" width="44" height="64" rx="10" fill="url(#glass)"/>
    <rect x="226" y="410" width="44" height="64" rx="10" fill="url(#glass)"/>
    <rect x="292" y="410" width="44" height="64" rx="10" fill="url(#glass)"/>
    <rect x="862" y="318" width="44" height="64" rx="10" fill="url(#glass)"/>
    <rect x="928" y="318" width="44" height="64" rx="10" fill="url(#glass)"/>
    <rect x="862" y="410" width="44" height="64" rx="10" fill="url(#glass)"/>
    <rect x="928" y="410" width="44" height="64" rx="10" fill="url(#glass)"/>
  </g>

  <g>
    <path d="M457 730 524 522h152l67 208Z" fill="#dae7f2"/>
    <path d="M505 730h190" stroke="#eef6fd" stroke-width="10" stroke-linecap="round"/>
    <path d="M360 730c56-62 109-93 164-93 55 0 108 31 164 93H360Z" fill="#eff8ff" opacity="0.45"/>
  </g>

  <g filter="url(#shadow)">
    <rect x="174" y="638" width="248" height="78" rx="24" fill="#f8fbff"/>
    <rect x="204" y="614" width="152" height="62" rx="24" fill="#ffffff"/>
    <rect x="222" y="626" width="72" height="28" rx="10" fill="#90d0ff"/>
    <rect x="314" y="626" width="28" height="28" rx="8" fill="#34d399"/>
    <rect x="350" y="646" width="56" height="12" rx="6" fill="#ef4444"/>
    <rect x="356" y="622" width="22" height="22" rx="6" fill="#ffffff"/>
    <path d="M364 627h6v14h-6Z" fill="#ef4444"/>
    <path d="M359 632h16v4h-16Z" fill="#ef4444"/>
    <circle cx="238" cy="716" r="22" fill="#1e293b"/>
    <circle cx="238" cy="716" r="10" fill="#94a3b8"/>
    <circle cx="362" cy="716" r="22" fill="#1e293b"/>
    <circle cx="362" cy="716" r="10" fill="#94a3b8"/>
  </g>

  <g>
    <rect x="1032" y="594" width="18" height="108" rx="9" fill="#8b5e3c"/>
    <circle cx="1041" cy="566" r="38" fill="#5cc28d"/>
    <circle cx="1010" cy="585" r="32" fill="#48a86f"/>
    <circle cx="1070" cy="586" r="34" fill="#71d9a2"/>
    <rect x="96" y="604" width="18" height="104" rx="9" fill="#8b5e3c"/>
    <circle cx="105" cy="578" r="36" fill="#49b983"/>
    <circle cx="74" cy="596" r="28" fill="#64d49a"/>
    <circle cx="137" cy="596" r="30" fill="#37a26f"/>
  </g>
</svg>
